# xmcd
# 
# Track frame offsets:
#     150
#     19866
#     32245
#     52006
#     71996
#     86928
#     102357
#     123280
#     141560
#     163002
#     179624
#     196844
#     213317
# 
# Disc length: 3184
# 
# Revision: 0
# Processed by: cddbd v1.5.2PL0 Copyright (c) Steve Scherf et al.
# Submitted via: fre:ac v1.0.17
# 
DISCID=c90c6e0d
DTITLE=Various Artist - Tatuaje 2
DYEAR=2003
DGENRE=Copla
TTITLE0=Chonchi Heredia - Francisco Alegre
TTITLE1=Diego el Cigala - Suspiros de España
TTITLE2=Papá Levante - Limosna de amores
TTITLE3=Lolita - Callejuela sin salida
TTITLE4=Andy and Lucas - La lirio
TTITLE5=David Bisbal - Triniá
TTITLE6=Diego Torres - La zarzamora
TTITLE7=Pasión Vega - Malagueña
TTITLE8=Lichis - Romance de la reina Mercedes
TTITLE9=Chenoa - El beso
TTITLE10=Carmen París - No te mires en el río
TTITLE11=Juanito Valderrama - El emigrante
TTITLE12=Arturo Pareja Obregón - Dime que me quieres
EXTD=Homenaje a La Copla
EXTT0=
EXTT1=
EXTT2=
EXTT3=
EXTT4=
EXTT5=
EXTT6=
EXTT7=
EXTT8=
EXTT9=
EXTT10=
EXTT11=
EXTT12=
PLAYORDER=
